<svg id="Layer_1" data-name="Layer 1" xmlns="http://www.w3.org/2000/svg" viewBox="0 0 1920 1080"><defs><style>.cls-1{fill:#47517c;}.cls-2{fill:#dddbcc;}.cls-3{fill:#314347;}.cls-4{fill:#b5aca7;}.cls-5{fill:#7e847f;}.cls-6{fill:#6b756d;}.cls-7{fill:#35273f;}.cls-8{fill:#232120;}.cls-9{fill:#020202;}.cls-10{fill:#493d54;}.cls-11{fill:#132316;}</style></defs><title>background</title><rect class="cls-1" x="-43" y="-5" width="1963" height="1089"/><path class="cls-2" d="M86.78,63.86c14.47-14.92,37.34-19.68,57.72-15.57S182.94,64.34,198,78.67c17.7,16.83,32.54,39,32.34,63.45-.16,20.11-10.8,39.22-25.83,52.58S170.43,216.18,151,221.22c-23.93,6.19-51.63,7.29-71.05-8-13.53-10.64-20.62-27.35-26.32-43.59-7.92-22.57-14.1-48-4.3-69.82,9.61-21.36,32-33.59,53.31-43.34"/><path class="cls-3" d="M147.05,498.22a296.84,296.84,0,0,1,19-59.93,54.71,54.71,0,0,1,13.22,29.44c.95,7.89.95,17.43,7.71,21.6a7.19,7.19,0,1,0-1.85,14.14c-5.11,3.93-3.33,12.7,1.77,16.64s12,4.42,18.42,4.73c-12.12,20.67-35.61,31.33-57.65,40.75-3.14-1.33-2.25-6-.54-9s3.63-6.94,1.26-9.39c-1.26-1.29-3.32-1.54-4.52-2.88-3.46-3.84,3.83-9.16,3.22-14.3-.27-2.29-2.11-4-3.13-6.11-4.61-9.32,8.09-19.7,5.45-29.75"/><path class="cls-3" d="M1372.48,253a101.58,101.58,0,0,0,39.9,52.21c2.64,1.75,5.69,5.12,3.59,7.49-1.21,1.37-3.36,1.18-5.16.88l-12.57-2.12,23.61,26.89-10.44,3.88a77.29,77.29,0,0,0,13.09,12.15l-8.21,4.31a27.81,27.81,0,0,0,9.71,14.27,197.17,197.17,0,0,1-32.6.53c-10.1-.68-20.12-2.14-30.14-3.6l-63.75-9.27L1319,339.9c-2.54.73-2.32-3.79-.69-5.86q8.91-11.22,17.81-22.46a6.38,6.38,0,0,0-7.23,1.27l26.93-22.13c1.71-1.4,3.56-3.06,3.68-5.27s-2.87-4.27-4.32-2.61l17.11-36.32"/><path class="cls-3" d="M1135.27,281c1.54,8.64,3.18,17.54,7.93,24.93s13.45,13,22.08,11.32a22.86,22.86,0,0,1-12.75,7.47,43.89,43.89,0,0,0,13.54,10.79,9.8,9.8,0,0,0-6.11,3.36,16.65,16.65,0,0,0,11.93,5.63c-6.21,6.65-16.61,7-25.58,5.48s-18-4.53-27-2.92c-8.75,1.56-18.32,7.24-25.68,2.26,1.42-6.12,7.64-9.59,12.53-13.53s9-11.25,5-16.15c.9-1.89,3.14-2.63,5.12-3.31s4.18-1.8,4.57-3.85-2.93-3.91-3.79-2l19.57-31.61"/><path class="cls-3" d="M839,301l-.28-5.35a72.24,72.24,0,0,0,20.64,38.09l-6.64,3.78c3.27,2.94,6.64,6,8.42,10s1.53,9.28-1.77,12.18l12.52,17.93a209.58,209.58,0,0,1-51.75,12.07c-2.9.3-6.33.32-8.12-2-1.94-2.49-.72-6.16,1-8.81s4-5.3,3.92-8.46-4.3-6-6.37-3.63a244.39,244.39,0,0,0,25.9-81.9"/><path class="cls-3" d="M1409.49,327.06q18.88-23.12,36.15-47.51l12.75,31.13c3.74,9.12,7.78,18.66,15.48,24.82-3-.11-2.87,5-.47,6.86s5.88,2.65,7.18,5.4c1.46,3.09-.71,6.54-1.57,9.84s1.69,8.13,4.71,6.55a161.64,161.64,0,0,1-68.36,1.69c-3.56-.68-7.17-1.49-10.77-1.12s-7,1.87-10.6,1.75-7.57-2.85-7-6.4c.36-2.47,2.63-4.1,4.26-6s2.5-5.19.42-6.57a23.51,23.51,0,0,0,9.14-3.44c2.15-2.66-4.89-4.11-5.41-7.49-.21-1.39.83-2.64,1.8-3.66l10.58-11.21"/><path class="cls-3" d="M34.84,375l-.16-7.4a100.39,100.39,0,0,0,28.18,56.31,38.08,38.08,0,0,0-13.62,3.14,54.75,54.75,0,0,1,12.12,18.21l-7.67,2.81c2.12,2.41,4.36,5.09,4.53,8.3s-3,6.66-6,5.46l27.95,48.56a12.21,12.21,0,0,1-9-1.27l4.29,8.17a19,19,0,0,1-9.34,1.34c-.34,7.46,5.13,13.7,9.21,20s6.65,15.33,1.36,20.6L84.37,565c-31.86,3-62.17,14.68-92,26.23A118.31,118.31,0,0,1,4.41,536.43a33.34,33.34,0,0,0-12.55,1.45A68.36,68.36,0,0,0,7.19,505.17a47.54,47.54,0,0,1,7.61-38.5,18.58,18.58,0,0,1-9.87-.18,133.87,133.87,0,0,0,22.8-51.6,9.44,9.44,0,0,0-6-2.15l20.43-52.08"/><path class="cls-3" d="M84.9,477l14.78-41.16c-5.81,15,8.9,31,6.34,46.86l6,4.4a5.18,5.18,0,0,1-5,2.19c1.88,6.14,13.41,5.47,14.06,11.86.66,6.6-11.87,9-10.63,15.56,1.09,5.75,11.35,5,13.12,10.55l-10.83,13.31,6.47,1.1-30,19a9.28,9.28,0,0,1-4.33,1.8,6.69,6.69,0,0,1-4.62-1.87c-5.75-4.95-5.34-14-2.81-21.2s6.72-13.92,7.07-21.5-5.53-16.24-13-14.94L83.7,487.19c-.11,2.09-2.79-1-2-2.9L91,462"/><path class="cls-3" d="M232.18,514.86l8-37.65c-3.27,6.65,3.14,13.81,8.93,18.44s12.28,11.65,9.17,18.38a62.21,62.21,0,0,0-33.61,12.65"/><path class="cls-4" d="M151.42,69c5-1.31,10.38.5,14.36,3.74s6.7,7.77,8.89,12.42c.82,1.74,1.59,3.75.89,5.54-1.8,4.59-10.1,2.3-12.58,6.56-.62,1.06-.75,2.38-1.53,3.31-1.38,1.63-3.93,1.3-6,.82-6.92-1.58-14.65-3.77-18-10-1.52-2.83-1.88-6.11-2.2-9.3-.42-4.28-.75-8.85,1.32-12.62,2.54-4.66,8.34-6.88,13.61-6.31s10,3.48,14,7"/><path class="cls-4" d="M80.36,134a17.13,17.13,0,0,1,13-11.39,13.16,13.16,0,0,1-2.85,13.66c3.18-.81,6.83-.69,9.39,1.37s3.3,6.41.87,8.6c4,.19,8.21.47,11.38,2.89s4.32,7.79,1.22,10.28a14.44,14.44,0,0,0,5.33,9c3.31,2.59,8.37,4.89,7.73,9-.33,2.18-2.26,3.71-4,5L106.8,193.76a5.17,5.17,0,0,1-2.54,1.21c-1.6.11-2.88-1.23-3.91-2.45l-6.12-7.27c-2.89-3.44-6.16-7.11-10.59-7.91-1.68-.3-3.45-.16-5-.79a10.52,10.52,0,0,1-3.83-3.14,96.59,96.59,0,0,1-11.18-15.8,35.86,35.86,0,0,1,8.34-4.8c-2.71-2.77-5.63-6.07-5.28-9.93s6.42-6.39,8.11-2.9a15,15,0,0,1,7.06-9"/><path class="cls-4" d="M185.36,182.25c-.16,1.39,2.19.88,3.12-.16l16.36-18.27c2.86,3.19,2.72,8.24.81,12.07s-5.24,6.74-8.48,9.54l-7.75,6.68c-3.12,2.69-6.55,5.51-10.66,5.8s-8.65-3.43-7.5-7.38l11.45-7.31"/><path class="cls-5" d="M-138.52,873l780.38-44.09c85.06-4.8,170.17-9.61,254.87-18.78,91.47-9.9,182.34-24.87,273.82-34.64,264.26-28.26,531-13,796.34,2.25,11.41.65,23.67,1.63,32.46,8.93s11.91,18.86,14.51,29.81a926.65,926.65,0,0,1,23.89,257.44c-.57,12.11-1.53,24.68-7.49,35.23-12,21.27-39.51,27.19-63.78,30.06-115.84,13.67-233,6.91-349.51,1.58a14081.84,14081.84,0,0,0-1442.38,8c-75.3,4.28-150.73,9.17-226.08,6-14.31-.59-30.12-2.15-39.84-12.66-8-8.68-9.8-21.29-11.08-33.06a2106.93,2106.93,0,0,1-12.36-225"/><path class="cls-6" d="M869.3,840.91A41.33,41.33,0,0,1,845.63,871l137.91,36.81-83.35,13.17c-11.28,1.78-25.35,6.47-25.94,17.87A54.44,54.44,0,0,1,910.89,949,430.74,430.74,0,0,1,790,974.89L941.15,1005l-234.28,50.57c8.82,1,4.67,15.08-2.48,20.33-33.74,24.79-83.85,21.94-113.14,51.85,299.9,44.92,610.28,69.11,903.1-9.76-13.95-34.94-59.42-41-96.38-48a335.23,335.23,0,0,1-101.27-36.84l80.69-36.29a132,132,0,0,1-59.83-29.38l99.87-57.73L1371,886.69c5.22-27.67,63.84-9.14,68.66-36.88,1.64-9.44-5.86-18.53-14.77-22s-18.86-2.81-28.41-2.09c-143.46,10.88-287.69,14.45-431.2,4.24C924.73,827,882.1,823.37,845,840.1"/><path class="cls-7" d="M1961.23,443.33c-156-83-335.31-92.94-508.9-101.32l-334.42-16.15c-40.34-1.95-81-3.88-120.93,2.68-42.15,6.92-82.54,23.15-124.39,32-73.74,15.55-149.85,7.74-224.7,14.64A582.22,582.22,0,0,0,469.38,421.1c-46.74,20.31-91.23,46.8-139.11,63.7C285.93,500.45,239.5,507.6,194,518.56,106.26,539.68-10.22,569.87-86.37,623.35c-33.2,23.31-24.68,77.42-29.11,118.36Q-125,829.3-140.2,916l838.42-46.44L816.64,863c167.46-9.28,334.94-18.56,502.54-24.32,68.63-2.35,137.28-4.12,205.92-5.89L1984.61,821c3.62-.09,7.49-.28,10.38-2.64,3.1-2.52,4.29-6.9,5.18-11,24.89-113.93-35.05-228.37-43.27-345.13-.64-9.14,5.7-22.55,12.29-16.83"/><path class="cls-8" d="M878.77,865.55q155.91-5.41,311.44-18.4c36.77-3.07,50.89.69,85.29-12.65,13.42-5.2,38.78,2.2,53,0,13.63-2.11,39.69-6.24,52,0,6.84,3.47,64,1.67,64-6,0-52-35.36-169.85-46.43-192.58-21.85-44.9-55.73-82.71-90.5-118.54-34.12-35.16-74.52-71.23-123.5-72.23-20.16-.41-39.89,5.33-59.24,11l-92.14,27c-35.12,10.31-71.25,21.13-99.77,44.08-32.56,26.2-51.93,66-61.13,106.76s-9.17,83-9.09,124.78q.09,52.47.19,104.94"/><path class="cls-9" d="M1410,806.87c-1.74-51.42-4.62-106.3-34.88-147.81-22.9-31.43-58.68-50.92-84.31-80.15-27.92-31.85-52.19-79.46-94.36-76.8-13.79.87-26.47,7.55-38.66,14.08l-90.66,48.61c-10.94,5.86-22.13,11.92-30.28,21.31-6,6.86-10,15.16-13.94,23.35C981.68,694.83,914.76,760.29,908,855a75.07,75.07,0,0,0,0,9c1.76,8.29,51.43-.13,58-1,102-13.48,187.7-1.37,289.67-14.85,42.46-5.61,85.52-11.23,127.94-4.93a25.39,25.39,0,0,0,5.64.28c20.36-1.59,18.8-27.52,13-44.73"/><path class="cls-10" d="M699.64,436.52a92.25,92.25,0,0,0-74.09-7.4,81.19,81.19,0,0,1,40.18,14.32l-24.06,10.24,26.69.68a96,96,0,0,0-33.81,39.31,227.91,227.91,0,0,1,51.12-27.39c1.37-.52,2.9-1,4.26-.46,3.05,1.26,2,5.74.92,8.87a26.71,26.71,0,0,0,1.71,20.62,61.41,61.41,0,0,1,19.38-27c2.06-1.64,4.43-3.21,7.06-3.17,7.56.13,9.65,12.26,17.06,13.78-4.52-6.86-16.2-9.07-16.45-17.28-.13-4.31,3.52-8,7.61-9.35s8.53-.91,12.81-.46c-8.3-11.92-25.46-16.7-38.73-10.79l7.08-10"/><path class="cls-10" d="M700.39,435.22a94.72,94.72,0,0,0-75.24-7.55,1.51,1.51,0,0,0,.4,2.95A81.87,81.87,0,0,1,665,444.74v-2.59l-24.06,10.24c-1.46.62-.6,2.76.75,2.79l26.69.68-.76-2.79a99.58,99.58,0,0,0-34.35,39.84c-.57,1.22.71,3,2.06,2a232,232,0,0,1,41.86-23.62c1.84-.79,11.19-6.15,13.14-3,1.28,2.1-1.51,7.78-1.87,9.88a29.21,29.21,0,0,0,2.83,17.81c.62,1.26,2.33.73,2.74-.36a61.47,61.47,0,0,1,9-16.23c3.26-4.18,10.1-13,16-12.82,4.13.16,6.62,4.83,8.84,7.7s4.38,5.07,7.82,6c1.17.33,2.49-1.1,1.7-2.2-3.4-4.68-8.54-6.78-12.77-10.49-3.52-3.08-4.91-7.44-1.21-11.28,4.3-4.45,11.09-3.63,16.65-3.06a1.5,1.5,0,0,0,1.3-2.25,34.29,34.29,0,0,0-40.43-11.49l1.7,2.21,7.07-10c1.12-1.57-1.48-3.07-2.59-1.51l-7.07,10c-.72,1,.49,2.71,1.69,2.21a31.31,31.31,0,0,1,37,10.1l1.29-2.26c-8.12-.83-23.47.31-21.81,12.39,1.16,8.5,12.06,10.77,16.55,16.95l1.69-2.2c-8.35-2.31-10.37-17.58-21.25-13-5.72,2.41-10.71,8.25-14.44,13a65.23,65.23,0,0,0-9.65,17.41l2.74-.36a25.89,25.89,0,0,1-2.39-16.3c.58-3,2.2-6.07,1.94-9.24-.51-6.35-6.48-4.85-10.68-3.18a232.88,232.88,0,0,0-48.94,26.54l2.06,2.06a96.39,96.39,0,0,1,33.27-38.77,1.52,1.52,0,0,0-.76-2.8l-26.69-.68.76,2.8,24.06-10.24c1.13-.48.82-2,0-2.59a85,85,0,0,0-40.94-14.53l.4,2.95a91.63,91.63,0,0,1,72.93,7.24,1.5,1.5,0,0,0,1.51-2.59Z"/><path class="cls-10" d="M116.33,615.39a128.6,128.6,0,0,1,41.54,73.32c.75,4.17.2,10-4,10.59-3.1.46-5.51-2.53-7.2-5.17Q128.11,665.08,109.53,636a100.66,100.66,0,0,0-5.85,72.65c1.76,5.79,3.49,13.36-1.47,16.81L86.68,679.19l-4.12,6a119.1,119.1,0,0,1,6.7-37c-13.64,8-22.48,22-30.79,35.51a79.34,79.34,0,0,1,17-35.91c2.57-3.08,5.59-6.68,4.68-10.59s-5.34-5.83-9.21-5.38-7.24,2.72-10.44,4.93c1.35-3.45-5-3.72-8.1-1.67L25.93,652.73C28.49,641,41.29,635.17,52.52,631L104,612c7-2.6,14.22-5.23,21.72-5.48,13.71-.48,26.39,7,37.35,15.24L121,617.45l2.42-5.41"/><path class="cls-10" d="M115.27,616.45a128.2,128.2,0,0,1,39.49,64.89,50.19,50.19,0,0,1,1.88,9.77,8.3,8.3,0,0,1-.52,4.14c-2.13,4-6.05,1.08-7.76-1.31-4.32-6-8.06-12.58-12.06-18.83l-25.47-39.83a1.51,1.51,0,0,0-2.59,0A103.48,103.48,0,0,0,98,679.44a101.68,101.68,0,0,0,2.34,22.27c1.39,6.36,7.08,17.53.83,22.73l2.5.66L88.13,678.79a1.53,1.53,0,0,0-2.75-.36l-4.12,6.05,2.8.75a123.06,123.06,0,0,1,6.65-36.6,1.51,1.51,0,0,0-2.2-1.69c-14,8.54-22.9,22.38-31.33,36l2.74,1.15A80,80,0,0,1,68.28,661a77.13,77.13,0,0,1,7.2-10.8c2-2.55,4.5-5,5.65-8.12a8.2,8.2,0,0,0-4.46-10.77c-6-2.76-12,.86-16.92,4.19l2.2,1.7c1.14-5.27-5.54-5.5-9-4-4.26,1.81-8.17,5.24-12,7.81L25.18,651.43l2.2,1.7c2.74-10.76,13.48-16,23-19.71C63.1,628.48,76,624,88.76,619.24c12.35-4.56,26-11.63,39.4-11.19,12.8.43,24.18,7.61,34.14,15l.76-2.79L121,616l1.3,2.25,2.42-5.4c.78-1.75-1.8-3.28-2.59-1.52l-2.43,5.41A1.54,1.54,0,0,0,121,619l42.11,4.34c1.65.17,1.8-2,.76-2.8C153.61,612.89,142,605.8,129,605.08c-14.66-.8-29.44,7-42.85,11.95s-27.46,9.45-40.69,15.2c-9.21,4-18.33,9.8-20.95,20.1a1.51,1.51,0,0,0,2.2,1.69l16.55-11,7.45-4.95c.14-.1,9.12-5.15,8.37-1.68-.25,1.18,1,2.48,2.2,1.69,2.6-1.77,5.35-3.75,8.46-4.47,5.29-1.22,10.91,2.69,8.11,8.48-2.15,4.44-6.4,8.21-9.12,12.38A82.31,82.31,0,0,0,57,683.34a1.51,1.51,0,0,0,2.75,1.15c8.15-13.21,16.69-26.7,30.25-35l-2.2-1.7a125.82,125.82,0,0,0-6.76,37.4,1.51,1.51,0,0,0,2.79.76L88,680l-2.74-.36,15.53,46.31a1.53,1.53,0,0,0,2.51.66c4.38-3.64,4.06-9.25,2.92-14.36-1.83-8.17-4.24-15.86-4.9-24.29a100.17,100.17,0,0,1,9.54-51.12h-2.59l31.84,49.8c2.76,4.31,6.41,13.54,12.52,14.21,4.91.54,6.92-4.37,7.05-8.45.22-6.88-2.52-14.55-4.63-21a132.61,132.61,0,0,0-8.91-20.8,131.13,131.13,0,0,0-28.72-36.25c-1.44-1.28-3.57.83-2.12,2.12Z"/><path class="cls-10" d="M1327,433.19l79.12-11.14c6.49-.92,14.17-1.42,18.48,3.52a124.31,124.31,0,0,0-43.32,16.84l24.24,2.94a63.23,63.23,0,0,1-13.49,9.06,48.5,48.5,0,0,1,20,26.08,107.13,107.13,0,0,0-27.21-3.4c-1.74,0-3.61.09-5,1.14-2.87,2.15-1.93,6.7-.08,9.77s4.45,6.14,4.07,9.7c-9.18-1.18-15.23-10-23.46-14.28-10.59-5.47-25-1.9-31.79,7.89-4.43-4.49,3.43-14-1.63-17.76-5.57-4.16-12.57,8.62-18.67,5.28a48.85,48.85,0,0,0,20.84-38.95"/><path class="cls-10" d="M1327.42,434.64l49.44-7,23.74-3.34c7.31-1,17.06-3.62,23,2.3l.67-2.51a129.59,129.59,0,0,0-43.69,17,1.52,1.52,0,0,0,.76,2.8l24.24,2.94-1.06-2.56a68.28,68.28,0,0,1-13.19,8.83,1.52,1.52,0,0,0,0,2.59,48.06,48.06,0,0,1,19.3,25.18l1.85-1.85a115.66,115.66,0,0,0-17.54-3c-4.3-.39-10.59-1.59-14.7.28-9.61,4.37,2.08,15.76,2.12,21.39l1.89-1.45c-12.06-2.07-18.54-14.83-31-16.62a27.58,27.58,0,0,0-26,10.92l2.35-.3c-4.05-5.05,5.06-14.66-2.7-18.46-6.83-3.34-11.72,8.39-17.9,5.75v2.59a51.13,51.13,0,0,0,21.58-40.25c.05-1.93-2.95-1.93-3,0a48,48,0,0,1-20.09,37.66c-.81.57-1.14,2.1,0,2.59a7.55,7.55,0,0,0,6.65-.2c2.93-1.34,5.95-5.14,9.18-5.53,6.13-.74,3,7.33,2.54,10.57-.4,2.86-.21,5.12,1.62,7.4a1.52,1.52,0,0,0,2.36-.31c6.65-9,19.63-12.45,29.73-7.35,8.43,4.26,14.07,12.76,23.82,14.44a1.53,1.53,0,0,0,1.9-1.45,14.66,14.66,0,0,0-2.59-7.82c-2.61-4.32-6.16-9.78,2.1-11.29,3.86-.71,9,.27,12.8.72a112.94,112.94,0,0,1,14,2.62,1.51,1.51,0,0,0,1.85-1.84,51.43,51.43,0,0,0-20.68-27v2.59a71.75,71.75,0,0,0,13.79-9.3c1.11-.94.09-2.42-1.06-2.56l-24.24-2.94.75,2.79A127.31,127.31,0,0,1,1425,427a1.5,1.5,0,0,0,.66-2.5c-4.51-4.53-10.63-4.93-16.7-4.31-8.36.84-16.69,2.3-25,3.47l-57.36,8.08c-1.91.26-1.1,3.16.8,2.89Z"/><path class="cls-11" d="M-12.18,754.11A81,81,0,0,1,34.3,727.64c2.58-.47,5.34-.8,7.75.22,5.16,2.17,6,9.59,3,14.28s-8.3,7.3-13.37,9.67a241.07,241.07,0,0,1,56-2.54c-7.06,1.56-.87,12.06,5.68,15.09l63.44,29.33a42.22,42.22,0,0,1-25.45,9.84c-1.3,10.11,9.22,17.21,16.42,24.54s9.08,23.16-1.16,24.65a10.45,10.45,0,0,1,1,14.93c-3.95,4-11.46,3.85-15.18-.39a104.09,104.09,0,0,1,22.27,41.66c.86,3.25,1.48,7-.51,9.71-2.35,3.23-7.16,3.44-10.42,5.78-7.4,5.32-3.36,18-9.38,24.76-3.76,4.24-10.11,4.78-15.79,5.37A143.38,143.38,0,0,0,33.37,994.7,8.26,8.26,0,0,0,37.42,985a26.23,26.23,0,0,0-30.27,3.51c-2.67,2.53-4.95,5.76-8.45,7-9.27,3.18-15.39-9-21.79-16.28-7.59-8.67-19.64-11.69-30.41-16s-22-12-23-23.38l20.61-8.55a441.9,441.9,0,0,0-57.15-45.82c15.64-8.28,15.9-34.45.44-43a16,16,0,0,0,14.31-13.71,15.89,15.89,0,0,0-11.06-16.38,264.08,264.08,0,0,1,84.51-51.5"/></svg>